<svg width="19" height="18" viewBox="0 0 19 18" fill="none" xmlns="http://www.w3.org/2000/svg">
<path d="M18.1064 9C18.1064 11.3869 17.1582 13.6761 15.4704 15.364C13.7826 17.0518 11.4934 18 9.10645 18C6.7195 18 4.43031 17.0518 2.74248 15.364C1.05466 13.6761 0.106445 11.3869 0.106445 9C0.106445 6.61305 1.05466 4.32387 2.74248 2.63604C4.43031 0.948212 6.7195 0 9.10645 0C11.4934 0 13.7826 0.948212 15.4704 2.63604C17.1582 4.32387 18.1064 6.61305 18.1064 9V9ZM9.42932 6.64425C8.55407 7.00875 6.80357 7.7625 4.18007 8.9055C3.75482 9.07425 3.53095 9.24075 3.5107 9.40275C3.47695 9.67612 3.82007 9.78413 4.28695 9.9315L4.48382 9.99338C4.94282 10.143 5.56157 10.3174 5.8822 10.3241C6.1747 10.3309 6.49982 10.2116 6.8587 9.96413C9.31007 8.30925 10.5757 7.47337 10.6544 7.45537C10.7107 7.44187 10.7894 7.42613 10.8412 7.47338C10.8941 7.5195 10.8884 7.60837 10.8828 7.632C10.8491 7.77712 9.50245 9.02812 8.80607 9.67612C8.58895 9.87862 8.43482 10.0215 8.40332 10.0541C8.33396 10.125 8.26345 10.1948 8.19182 10.2634C7.76432 10.6751 7.44482 10.9834 8.2087 11.4874C8.57657 11.7304 8.87132 11.9295 9.16495 12.1297C9.48445 12.348 9.80395 12.5651 10.2179 12.8374C10.3226 12.9049 10.4238 12.978 10.5217 13.0477C10.8941 13.3132 11.2304 13.5518 11.6433 13.5135C11.8841 13.491 12.1327 13.266 12.2587 12.591C12.5568 10.9969 13.1429 7.54425 13.2779 6.12112C13.2862 6.00282 13.2813 5.88397 13.2633 5.76675C13.2527 5.67216 13.2069 5.58502 13.1351 5.52262C13.0327 5.45196 12.9107 5.41535 12.7863 5.418C12.4488 5.42362 11.9279 5.60475 9.42932 6.64425V6.64425Z" fill="#323232"/>
</svg>
