<svg width="19" height="18" viewBox="0 0 19 18" fill="none" xmlns="http://www.w3.org/2000/svg">
<path d="M11.8691 0H6.34381C1.30172 0 0.106445 1.19528 0.106445 6.23737V11.7626C0.106445 16.8047 1.30172 18 6.34381 18H11.8691C16.9112 18 18.1064 16.8047 18.1064 11.7626V6.23737C18.1064 1.19528 16.8994 0 11.8691 0ZM14.6376 12.8403H13.331C12.836 12.8403 12.6836 12.4477 11.7931 11.5455C11.0197 10.7957 10.6772 10.6962 10.4865 10.6962C10.2171 10.6962 10.1406 10.7721 10.1406 11.1417V12.3223C10.1406 12.639 10.041 12.8291 9.20291 12.8291C7.81695 12.8291 6.27913 11.991 5.20085 10.4295C3.57471 8.14137 3.12979 6.42749 3.12979 6.07312C3.12979 5.88244 3.20572 5.70413 3.5719 5.70413H4.88136C5.21266 5.70413 5.33866 5.85657 5.46747 6.21093C6.11488 8.08006 7.19316 9.71745 7.63809 9.71745C7.80233 9.71745 7.87827 9.64151 7.87827 9.22246V7.29202C7.8282 6.40161 7.35966 6.32511 7.35966 6.009C7.35966 5.85657 7.48565 5.70413 7.68758 5.70413H9.74683C10.0253 5.70413 10.1276 5.85657 10.1276 6.18449V8.78879C10.1276 9.07003 10.2536 9.16959 10.3296 9.16959C10.4938 9.16959 10.6344 9.07003 10.9387 8.76516C11.8792 7.71051 12.5531 6.08437 12.5531 6.08437C12.6408 5.89369 12.7932 5.71538 13.1245 5.71538H14.434C14.8266 5.71538 14.9144 5.91732 14.8266 6.19856C14.6624 6.96016 13.0599 9.2219 13.0599 9.2219C12.922 9.45027 12.8692 9.54983 13.0599 9.80463C13.2005 9.99531 13.6578 10.3907 13.9621 10.7451C14.5217 11.3807 14.952 11.9139 15.0668 12.2829C15.1956 12.6491 15.0055 12.8398 14.6359 12.8398L14.6376 12.8403Z" fill="#323232"/>
</svg>
